<svg xmlns="http://www.w3.org/2000/svg" viewBox="-1 -1 153 26" width="306" height="52" role="img" aria-label="HIVENODES"><path transform="translate(0 0)" fill="none" stroke="#e9e5dc" stroke-width="3.4" stroke-linejoin="miter" stroke-miterlimit="10" stroke-linecap="butt" d="M1.7 1.7V22.3M13.3 1.7V22.3M1.7 11.6H13.3"/><path transform="translate(18.2 0)" fill="none" stroke="#e9e5dc" stroke-width="3.4" stroke-linejoin="miter" stroke-miterlimit="10" stroke-linecap="butt" d="M1.7 1.7V22.3"/><path fill="#e9e5dc" d="M24.8 0H30L35.4 24H32.2Z"/><path fill="#e9e5dc" d="M41.2 0H42.8L38.2 16H36.6Z"/><path transform="translate(46 0)" fill="none" stroke="#e9e5dc" stroke-width="3.4" stroke-linejoin="miter" stroke-miterlimit="10" stroke-linecap="butt" d="M13 1.7H1.7V22.3H13M1.7 11.6H11"/><path transform="translate(62.2 0)" fill="none" stroke="#e9e5dc" stroke-width="3.4" stroke-linejoin="bevel" stroke-miterlimit="10" stroke-linecap="butt" d="M1.7 22.3V1.7L13.3 22.3V1.7"/><path transform="translate(80.4 0)" fill="none" stroke="#e9e5dc" stroke-width="3.4" stroke-linejoin="miter" stroke-miterlimit="10" stroke-linecap="butt" d="M6.7 1.7H10.3L15.3 6.7V17.3L10.3 22.3H6.7L1.7 17.3V6.7Z"/><path transform="translate(100.6 0)" fill="none" stroke="#e9e5dc" stroke-width="3.4" stroke-linejoin="miter" stroke-miterlimit="10" stroke-linecap="butt" d="M1.7 1.7H9.3L14.3 6.7V17.3L9.3 22.3H1.7Z"/><path transform="translate(119.8 0)" fill="none" stroke="#e9e5dc" stroke-width="3.4" stroke-linejoin="miter" stroke-miterlimit="10" stroke-linecap="butt" d="M13 1.7H1.7V22.3H13M1.7 11.6H11"/><path transform="translate(136 0)" fill="none" stroke="#e9e5dc" stroke-width="3.4" stroke-linejoin="miter" stroke-miterlimit="10" stroke-linecap="butt" d="M15 1.7H5.7L1.7 5.7V7.6L5.7 11.6H9.3L13.3 15.6V18.3L9.3 22.3H0"/></svg>
